<svg width="25" height="24" viewBox="0 0 25 24" fill="none" xmlns="http://www.w3.org/2000/svg">
<path d="M4.7 24L20.3 24C22.6196 24 24.5 22.1196 24.5 19.8L24.5 4.2C24.5 1.8804 22.6196 0 20.3 0L4.7 0C2.3804 0 0.5 1.8804 0.5 4.2L0.5 19.8C0.5 22.1196 2.3804 24 4.7 24Z" fill="url(#paint0_radial_197_3609)"/>
<path d="M17 21H8C6.80653 21 5.66193 20.5259 4.81802 19.682C3.97411 18.8381 3.5 17.6935 3.5 16.5V7.5C3.5 6.30653 3.97411 5.16193 4.81802 4.31802C5.66193 3.47411 6.80653 3 8 3H17C18.1935 3 19.3381 3.47411 20.182 4.31802C21.0259 5.16193 21.5 6.30653 21.5 7.5V16.5C21.5 17.6935 21.0259 18.8381 20.182 19.682C19.3381 20.5259 18.1935 21 17 21ZM8 4.8C7.28422 4.80099 6.59804 5.08577 6.09191 5.59191C5.58577 6.09804 5.30099 6.78422 5.3 7.5V16.5C5.30099 17.2158 5.58577 17.902 6.09191 18.4081C6.59804 18.9142 7.28422 19.199 8 19.2H17C17.7158 19.199 18.402 18.9142 18.9081 18.4081C19.4142 17.902 19.699 17.2158 19.7 16.5V7.5C19.699 6.78422 19.4142 6.09804 18.9081 5.59191C18.402 5.08577 17.7158 4.80099 17 4.8H8Z" fill="white"/>
<path d="M12.1 17.2C11.0913 17.2 10.1053 16.9009 9.26659 16.3405C8.4279 15.7801 7.77422 14.9836 7.38822 14.0517C7.00221 13.1198 6.90121 12.0943 7.098 11.105C7.29478 10.1157 7.78051 9.20701 8.49376 8.49376C9.20701 7.78051 10.1157 7.29478 11.105 7.098C12.0943 6.90121 13.1198 7.00221 14.0517 7.38822C14.9836 7.77422 15.7801 8.4279 16.3405 9.26659C16.9009 10.1053 17.2 11.0913 17.2 12.1C17.199 13.4523 16.6614 14.7489 15.7051 15.7051C14.7489 16.6614 13.4523 17.199 12.1 17.2ZM12.1 8.8C11.4473 8.8 10.8093 8.99354 10.2666 9.35615C9.72394 9.71876 9.30097 10.2342 9.0512 10.8371C8.80143 11.4401 8.73608 12.1037 8.86341 12.7438C8.99074 13.3839 9.30504 13.9719 9.76655 14.4335C10.2281 14.895 10.8161 15.2093 11.4562 15.3366C12.0963 15.4639 12.7599 15.3986 13.3629 15.1488C13.9659 14.899 14.4812 14.4761 14.8439 13.9334C15.2065 13.3907 15.4 12.7527 15.4 12.1C15.399 11.2251 15.051 10.3863 14.4324 9.76765C13.8137 9.14899 12.9749 8.801 12.1 8.8Z" fill="white"/>
<path d="M17.6 8.10005C18.097 8.10005 18.5 7.69711 18.5 7.20005C18.5 6.70299 18.097 6.30005 17.6 6.30005C17.1029 6.30005 16.7 6.70299 16.7 7.20005C16.7 7.69711 17.1029 8.10005 17.6 8.10005Z" fill="white"/>
<defs>
<radialGradient id="paint0_radial_197_3609" cx="0" cy="0" r="1" gradientUnits="userSpaceOnUse" gradientTransform="translate(0.0171888 23.5125) rotate(180) scale(55.4231)">
<stop stop-color="#F9ED32"/>
<stop offset="0.36" stop-color="#EE2A7B"/>
<stop offset="0.44" stop-color="#D22A8A"/>
<stop offset="0.6" stop-color="#8B2AB2"/>
<stop offset="0.83" stop-color="#1B2AF0"/>
<stop offset="0.88" stop-color="#002AFF"/>
</radialGradient>
</defs>
</svg>
