<svg width="25" height="24" viewBox="0 0 25 24" fill="none" xmlns="http://www.w3.org/2000/svg">
<path d="M24.5 22.5C24.5 23.328 23.828 24 23 24H2C1.172 24 0.5 23.328 0.5 22.5V1.5C0.5 0.672 1.172 0 2 0H23C23.828 0 24.5 0.672 24.5 1.5V22.5Z" fill="#007BB5"/>
<path d="M8.75 8.25H5.75V18.75H8.75V8.25Z" fill="white"/>
<path d="M15.8743 8.25C13.781 8.25 13.421 9.0135 13.25 9.75V8.25H10.25V18.75H13.25V12.75C13.25 11.7773 13.7773 11.25 14.75 11.25C15.6995 11.25 16.25 11.766 16.25 12.75V18.75H19.25V13.5C19.25 10.5 18.8593 8.25 15.8743 8.25Z" fill="white"/>
<path d="M7.25 7.5C8.07843 7.5 8.75 6.82843 8.75 6C8.75 5.17157 8.07843 4.5 7.25 4.5C6.42157 4.5 5.75 5.17157 5.75 6C5.75 6.82843 6.42157 7.5 7.25 7.5Z" fill="white"/>
</svg>
