<svg width="14" height="10" viewBox="0 0 14 10" fill="none" xmlns="http://www.w3.org/2000/svg">
<path fill-rule="evenodd" clip-rule="evenodd" d="M0.150024 0.999902C0.150024 0.53046 0.530582 0.149902 1.00002 0.149902H13C13.4695 0.149902 13.85 0.53046 13.85 0.999902C13.85 1.46934 13.4695 1.8499 13 1.8499H1.00002C0.530582 1.8499 0.150024 1.46934 0.150024 0.999902Z" fill="black"/>
<path fill-rule="evenodd" clip-rule="evenodd" d="M0.150024 4.9999C0.150024 4.53046 0.530582 4.1499 1.00002 4.1499H13C13.4695 4.1499 13.85 4.53046 13.85 4.9999C13.85 5.46934 13.4695 5.8499 13 5.8499H1.00002C0.530582 5.8499 0.150024 5.46934 0.150024 4.9999Z" fill="black"/>
<path fill-rule="evenodd" clip-rule="evenodd" d="M0.150024 8.9999C0.150024 8.53046 0.530582 8.1499 1.00002 8.1499H13C13.4695 8.1499 13.85 8.53046 13.85 8.9999C13.85 9.46934 13.4695 9.8499 13 9.8499H1.00002C0.530582 9.8499 0.150024 9.46934 0.150024 8.9999Z" fill="black"/>
</svg>
