<svg width="22" height="16" viewBox="0 0 22 16" fill="none" xmlns="http://www.w3.org/2000/svg">
<path fill-rule="evenodd" clip-rule="evenodd" d="M17.0076 2.49288L16.9704 2.46808C16.2014 1.73634 15.2961 1.38907 14.2543 1.43868L14.2171 1.36426L14.2419 1.35186C15.1844 1.14102 15.7426 0.917778 15.9162 0.66973C15.9658 0.471291 15.9038 0.35967 15.6929 0.334865C15.2217 0.396877 14.7752 0.496096 14.3907 0.657327C14.8868 0.334865 15.0728 0.111622 14.9612 0C14.4775 0.0124024 13.9442 0.26045 13.3985 0.756547C13.5969 0.409279 13.6838 0.210841 13.6341 0.186036C13.3613 0.35967 13.138 0.558108 12.9396 0.768949C12.5179 1.24024 12.1831 1.67432 11.9226 2.0712L11.9102 2.09601C11.2529 3.17501 10.7816 4.25402 10.5087 5.35784L10.4095 5.44465L10.3847 5.45706C9.98784 4.96096 9.50414 4.53928 8.93363 4.20441C8.2639 3.75793 7.47015 3.34865 6.55237 2.93937C5.56018 2.41847 4.54318 1.99679 3.52619 1.66192C3.51378 2.81535 4.08429 3.72072 5.18811 4.39045V4.40285C4.80363 4.40285 4.41916 4.46486 4.04709 4.57649C4.1215 5.64309 4.87805 6.37484 6.30432 6.77171L6.29192 6.79652C5.73381 6.75931 5.27492 6.95775 4.91526 7.36703C5.38655 8.2848 6.21751 8.71889 7.42054 8.69408C7.18489 8.81811 6.99886 8.94213 6.87484 9.09096C6.65159 9.32661 6.57718 9.59946 6.65159 9.90952C6.91204 10.3808 7.37093 10.5917 8.05306 10.5544L8.09027 10.6041L8.07787 10.6289C6.89964 11.8443 5.47336 12.39 3.81144 12.2784L3.78664 12.2908C2.76964 12.2784 1.67823 11.7947 0.5 10.8273C1.67823 12.5264 3.25333 13.7543 5.20051 14.5356C7.42054 15.2674 9.65297 15.3294 11.873 14.6968H11.9102C14.0682 14.0767 15.8914 12.7869 17.4045 10.8521C18.099 9.84751 18.5331 8.88012 18.7067 7.94994C19.8353 7.98715 20.6415 7.66468 21.15 6.97015L21.1376 6.94535C20.7531 7.08177 20.0214 7.04456 18.9424 6.82132V6.6973C20.133 6.56087 20.8399 6.1764 21.0632 5.54387C20.2322 5.86634 19.4137 5.87874 18.6075 5.56868C18.4587 4.45246 17.9254 3.42306 17.0076 2.49288Z" fill="#08A0F5"/>
</svg>
