<svg width="25" height="24" viewBox="0 0 25 24" fill="none" xmlns="http://www.w3.org/2000/svg">
<path d="M6.84345 20.5551L7.2358 20.7491C8.87079 21.7186 10.7018 22.1711 12.533 22.1711C18.2878 22.1711 22.9963 17.5171 22.9963 11.829C22.9963 9.11418 21.8845 6.46399 19.9227 4.52481C17.9608 2.58563 15.3449 1.48682 12.533 1.48682C6.77811 1.48682 2.06951 6.14078 2.13495 11.8936C2.13495 13.8327 2.72351 15.7073 3.70442 17.3232L3.96598 17.7111L2.91973 21.5248L6.84345 20.5551Z" fill="#00E676"/>
<path d="M21.0343 3.49047C18.8109 1.22817 15.7373 0 12.5983 0C5.92794 0 0.565437 5.36497 0.630781 11.8934C0.630781 13.9619 1.21934 15.9657 2.20034 17.7756L0.5 23.9162L6.84341 22.3003C8.60909 23.2699 10.5709 23.7224 12.5329 23.7224C19.1379 23.7224 24.5004 18.3573 24.5004 11.8289C24.5004 8.66159 23.2578 5.68819 21.0344 3.49047H21.0343Z" fill="white"/>
<path d="M12.5983 21.7186C10.8326 21.7186 9.06692 21.2662 7.56279 20.3612L7.17045 20.1673L3.37751 21.1368L4.35842 17.4525L4.09685 17.0646C1.21939 12.4753 2.59273 6.39915 7.30123 3.55502C12.0097 0.710969 18.0916 2.06841 20.969 6.72237C23.8464 11.3763 22.4731 17.3877 17.7647 20.2319C16.2604 21.2014 14.4294 21.7185 12.5983 21.7185V21.7186ZM18.3531 14.5438L17.6338 14.2206C17.6338 14.2206 16.5875 13.7681 15.9335 13.4449C15.8681 13.4449 15.8028 13.3802 15.7373 13.3802C15.5411 13.3802 15.4103 13.4449 15.2795 13.5095C15.2795 13.5095 15.2142 13.5741 14.2986 14.6084C14.2332 14.7376 14.1024 14.8023 13.9716 14.8023H13.9062C13.8409 14.8023 13.7101 14.7376 13.6446 14.673L13.3176 14.5438C12.5983 14.2206 11.9444 13.8327 11.4212 13.3156C11.2904 13.1863 11.0942 13.0571 10.9634 12.9278C10.5056 12.4753 10.0478 11.9582 9.72092 11.3764L9.65548 11.2472C9.59014 11.1825 9.59014 11.1179 9.5247 10.9886C9.5247 10.8594 9.5247 10.7301 9.59014 10.6654C9.59014 10.6654 9.8517 10.3422 10.0478 10.1483C10.1787 10.019 10.244 9.82513 10.3748 9.69586C10.5056 9.50192 10.571 9.24339 10.5056 9.04944C10.4403 8.72623 9.65548 6.98099 9.45935 6.59319C9.32848 6.39925 9.19779 6.33466 9.00157 6.26998H8.28223C8.15135 6.26998 8.02067 6.33466 7.88979 6.33466L7.82435 6.39925C7.69357 6.46393 7.56279 6.59319 7.43201 6.65778C7.30123 6.78714 7.23579 6.91631 7.10501 7.04567C6.64723 7.62742 6.38567 8.33843 6.38567 9.04944C6.38567 9.56651 6.51645 10.0837 6.71267 10.5361L6.7781 10.7301C7.36667 11.9582 8.15135 13.0571 9.19779 14.0266L9.45935 14.2851C9.65548 14.4791 9.8517 14.6084 9.98248 14.8022C11.3558 15.9658 12.9253 16.8061 14.691 17.2586C14.8872 17.3231 15.1488 17.3231 15.345 17.3878H15.9989C16.3259 17.3878 16.7182 17.2586 16.9799 17.1293C17.176 17 17.3068 17 17.4376 16.8708L17.5684 16.7414C17.6992 16.6121 17.83 16.5475 17.9608 16.4183C18.0916 16.289 18.2224 16.1597 18.2878 16.0304C18.4186 15.7718 18.4839 15.4486 18.5494 15.1255V14.673C18.5494 14.673 18.4839 14.6084 18.3531 14.5438Z" fill="#00E676"/>
</svg>
